<svg enable-background="new 0 0 64 64" viewBox="0 0 64 64" xmlns="http://www.w3.org/2000/svg"><circle cx="32" cy="32" fill="#e0995e" r="32"/><path d="m36 23v-9h-17c-1.7 0-3 1.3-3 3v34c0 1.7 1.3 3 3 3h26c1.7 0 3-1.3 3-3v-25h-9c-1.7 0-3-1.3-3-3z" fill="#231f20" opacity=".2"/><path d="m36 21v-9h-17c-1.7 0-3 1.3-3 3v34c0 1.7 1.3 3 3 3h26c1.7 0 3-1.3 3-3v-25h-9c-1.7 0-3-1.3-3-3z" fill="#e0e0d1"/><path d="m37 23.3 11 9.7v-9z" fill="#231f20" opacity=".2"/><path d="m36 12v9c0 1.7 1.3 3 3 3h9z" fill="#fff"/><g fill="#231f20"><path d="m22 22h9.6v2h-9.6z" opacity=".2"/><path d="m22 32h20v2h-20z" opacity=".2"/><path d="m22 27h20v2h-20z" opacity=".2"/><path d="m22 37h20v2h-20z" opacity=".2"/><path d="m22 42h20v2h-20z" opacity=".2"/></g></svg>