<svg enable-background="new 0 0 512 512" viewBox="0 0 512 512" xmlns="http://www.w3.org/2000/svg"><path d="m391.765 115.993 75.102-74.385c3.189-3.158 8.463-2.639 10.975 1.08l17.325 25.649c2.386 3.533 1.177 8.355-2.594 10.344l-92.427 48.736c-3.233 1.704-7.23.702-9.275-2.326-1.929-2.854-1.553-6.675.894-9.098zm12.42 63.879c.583 2.849 3.217 4.802 6.113 4.531l82.782-7.728c3.378-.315 5.734-3.493 5.053-6.817l-4.939-24.129c-.716-3.498-4.436-5.484-7.741-4.131l-77.843 31.856c-2.536 1.039-3.975 3.734-3.425 6.418zm-61.809-87.844c2.427 1.602 5.67 1.12 7.526-1.118l53.071-64c2.165-2.611 1.584-6.525-1.247-8.394l-20.553-13.569c-2.98-1.967-7.015-.741-8.395 2.553l-32.518 77.569c-1.059 2.527-.171 5.45 2.116 6.959z" fill="#ffd469"/><path d="m218.4 479.836-15.988 9.35c-12.996 7.6-29.692 3.226-37.292-9.77l-42.39-72.487c-7.6-12.996-3.226-29.692 9.77-37.292l15.988-9.35c12.996-7.6 29.692-3.226 37.292 9.77l42.39 72.487c7.601 12.996 3.226 29.692-9.77 37.292z" fill="#00b1ff"/><path d="m120.402 408.701 154.911-84.34-105.898-165.808-140.031 104.033c-.903.577-38.751 35.207 2.814 100.288s88.204 45.827 88.204 45.827z" fill="#0096d1"/><path d="m362.532 152.23c46.335 72.548 74.407 151.142 55.022 163.522s-78.885-46.14-125.22-118.689-74.406-151.141-55.022-163.522 78.885 46.14 125.22 118.689z" fill="#727272"/><ellipse cx="301.36" cy="191.299" fill="#b2b2b2" rx="34.502" ry="73.109" transform="matrix(.8428 -.5383 .5383 .8428 -55.5887 192.2876)"/><path d="m416.708 316.293c-16.932 10.814-74.444-48.976-120.779-121.525s-76.395-149.872-59.463-160.686c.975-.623 2.069-1.034 3.264-1.261-7.988-.183-15.814 3.983-20.445 12.839-20.408 39.028-72.491 125.618-72.491 125.618s-25.845 34.8 19.588 105.935 89.296 62.233 89.296 62.233 99.643-10.179 143.424-12.27c10.365-.495 17.584-6.25 20.583-14.014-.796 1.31-1.781 2.367-2.977 3.131z" fill="#d1d1d1"/><path d="m52.892 308.174c-4.647 0-9.196-2.298-11.883-6.505-4.187-6.556-2.267-15.264 4.289-19.451l57.911-36.986c6.555-4.186 15.264-2.267 19.451 4.289s2.267 15.264-4.289 19.451l-57.911 36.986c-2.348 1.5-4.974 2.216-7.568 2.216z" fill="#00b1ff"/></svg>