<svg viewBox="0 0 400 300" xmlns="http://www.w3.org/2000/svg"><path d="m202.45 81.56s-57.51 11.78-60.45 37.62 31.55 30.58 61.74 20.39 19-41.85 6.58-43c-9.91-1-17.64 14.45-33.1 20.62a3 3 0 0 1 -2.92-5.19l36.1-27.25-4.07-3.94z" fill="#68e1fd"/><path d="m202.45 81.56s-57.51 11.78-60.45 37.62 31.55 30.58 61.74 20.39 19-41.85 6.58-43c-9.91-1-17.64 14.45-33.1 20.62a3 3 0 0 1 -2.92-5.19l36.1-27.25-4.07-3.94z" opacity=".09"/><path d="m204.11 69.91h16.84v10.36h-16.84z" fill="#ffd200" transform="matrix(.69528585 -.71873332 .71873332 .69528585 10.79 175.63)"/><path d="m204.11 69.91h16.84v10.36h-16.84z" opacity=".09" transform="matrix(.69528585 -.71873332 .71873332 .69528585 10.79 175.63)"/><path d="m222.56 94.09s1.4-14.45 20-14.67 54.87 4.64 54.57 30.42-2.8 64.09-36 100.88l-57.37-14.87s26.99-69.78 18.8-101.76z" fill="#ffd200"/><path d="m231.09 91.87s5-5.66 27.41.85 28.38 17.68 22.7 51.48-24.05 59.57-24.05 59.57l-22.81-4.24z" opacity=".09"/><path d="m231.31 93.78s43.32 2.85 49.31 22.17-36.57 87.05-36.57 87.05h-55.77s10.19-40.8 2.4-59.08 3.37-58.36 40.63-50.14z" fill="#68e1fd"/><path d="m228.57 69.69 2.74 24.09-14.74 7.65 4.73-24.84z" fill="#f4a28c"/><path d="m220.4 80.44a8.78 8.78 0 0 0 4.44-2.38s-.39 4.42-5.45 8.58z" fill="#ce8172" opacity=".31"/><path d="m217.89 67.25s-2 7.13-1.63 12.18a3.71 3.71 0 0 0 4 3.45c2.54-.2 5.91-1.22 7.43-4.91l3.31-5.97a6.65 6.65 0 0 0 -1.6-7.51c-3.55-3.7-10.54-1.65-11.51 2.76z" fill="#f4a28c"/><path d="m216.88 71.81-2.54 2.43a1.18 1.18 0 0 0 .39 2l2.69 1z" fill="#f4a28c"/><path d="m220.24 59.31a1.89 1.89 0 0 0 -3 1.1c-.65 2.78-.87 6.82 2.86 8 5.87 1.9 3.39 11.16 10.18 11l3.86-8.41s1.57-6.1-4.12-8.7c-4.96-2.22-5.74-.09-9.78-2.99z" fill="#24285b"/><path d="m221.39 92.77c4 .24 10.78.76 16.51 1.73 0 0-23.54 36.57-28 77.34 0 0-10.2-51.2 0-77.92l5-.83a30 30 0 0 1 6.49-.32z" fill="#24285b"/><path d="m256.49 109.84s-11.65 12.23-8.65 26.22 6.8 36-4 39.38-32.78-6.4-32.78-6.4l-5.42 9.4 2.22 13.39s24-4 16.28 11.19h19.9s19.09-33 22.14-39.47-9.69-53.71-9.69-53.71z" opacity=".09"/><path d="m201.42 140.08h33.13v44.68h-33.13z" fill="#ffd200" transform="matrix(.99591597 -.09028495 .09028495 .99591597 -13.77 20.34)"/><path d="m255.42 112.42a11.39 11.39 0 0 1 18.14-5.69 37.67 37.67 0 0 1 14 25.75c2.69 23.77 7.75 59.45-6.32 63.94s-49.65-22.18-49.65-22.18l6.31-9.24s22.63 13.44 30.1 11c6.15-1.92-18.56-42.07-12.58-63.58z" fill="#68e1fd"/><path d="m255.42 112.42a11.39 11.39 0 0 1 18.14-5.69 37.67 37.67 0 0 1 14 25.75c2.69 23.77 7.75 59.45-6.32 63.94s-49.65-22.18-49.65-22.18l6.31-9.24s22.63 13.44 30.1 11c6.15-1.92-18.56-42.07-12.58-63.58z" fill="#fff" opacity=".46"/><path d="m237.9 165s-13.74-7.2-15.79-3 10.65 10.51 10.65 10.51z" fill="#f4a28c"/><path d="m214.9 93.09 2.52-5.29 5.58 3.29 9.09-3.89 1.3 6.8s-13.85 6.29-18.49-.91z" fill="#24285b"/><path d="m219.39 96.54 3.17-2.45 2.28 3.6-2.73 4.6-3.65-.86z" fill="#fff"/><path d="m218.46 101.43s-9.69 19-12.81 35.48l.26 4.17 11-1 1.53-4.53s2.81-22.07 3.65-33.26z" fill="#fff"/><path d="m149.91 196.33 164.8 30.12-65.57 49.74-186.78-43.71z" fill="#68e1fd"/><path d="m62.36 220.22v12.26l252.35-6.03v-12.26z" fill="#68e1fd"/><path d="m149.91 184.07 164.8 30.12-65.57 49.73-186.78-43.7z" fill="#24285b"/><path d="m132.46 218.65 27.19-16.52 52.09 13.22-26.15 17.98z" fill="#fff"/><path d="m224.48 74.9s.56-2.8 2.63-2.19 1.27 4.64-1.66 4.49z" fill="#f4a28c"/><path d="m240.25 210.75-33.72 22.84 31.65 9.07 31.65-24.06z" fill="#ffd200"/><path d="m132.46 218.65-13.69-37.73 57.63 12.81 9.19 39.6z" fill="#68e1fd"/><path d="m245.07 218.46-33.73 22.84 31.66 9.07 31.65-24.06z" fill="#fff"/><path d="m202.45 81.56s-.32-8.28 6-9.72 4.39 9.26-6 9.72z" fill="#f4a28c"/><ellipse cx="149.83" cy="206.41" fill="#fff" rx="4.07" ry="5.29" transform="matrix(.927706 -.37331164 .37331164 .927706 -66.23 70.87)"/><path d="m206.83 18.12h33.06v23.19h-33.06z" fill="#e6e6e6"/><path d="m227.58 37.89-4.08 11.4-3.63-11.4z" fill="#e6e6e6"/><g fill="#c1c1c1"><circle cx="214.24" cy="29.55" r="2.4"/><circle cx="223.1" cy="29.55" r="2.4"/><circle cx="232.21" cy="29.55" r="2.4"/></g><circle cx="111.77" cy="60.13" fill="#e6e6e6" r="20.69"/><circle cx="111.77" cy="60.13" fill="#fff" r="14.63"/><path d="m111.77 62.55a1 1 0 0 1 -.66-.24 1 1 0 0 1 -.34-.76v-9.83a1 1 0 0 1 2 0v8.68l6.92-1a1 1 0 0 1 .29 2l-8.07 1.16z" fill="#c1c1c1"/><path d="m249.14 263.92v12.27l65.57-49.74v-12.26z" opacity=".09"/></svg>