<svg enable-background="new 0 0 32 32" viewBox="0 0 32 32" xmlns="http://www.w3.org/2000/svg"><path d="m28.36 25.763v5.237h-.72v-5.237c0-5.419-3.679-10.076-8.946-11.324-.15-.036-.261-.163-.275-.316-.015-.154.071-.3.212-.363 2.34-1.041 3.851-3.365 3.851-5.919 0-3.573-2.907-6.48-6.48-6.48-3.574 0-6.481 2.907-6.481 6.48 0 2.555 1.512 4.878 3.851 5.919.141.063.226.209.212.363-.014.153-.125.281-.275.316-5.27 1.248-8.949 5.905-8.949 11.324v5.237h-.72v-5.237c0-5.444 3.497-10.164 8.611-11.779-2.123-1.296-3.452-3.618-3.452-6.144 0-3.97 3.23-7.2 7.201-7.2s7.201 3.23 7.201 7.2c0 2.525-1.329 4.847-3.452 6.144 5.114 1.615 8.611 6.334 8.611 11.779zm-9.615-4.018-2.745 2.745-2.746-2.745-.509.51 2.745 2.745-2.745 2.745.509.51 2.746-2.745 2.745 2.745.51-.51-2.745-2.745 2.745-2.745z"/><path d="m0 0h32v32h-32z" fill="none"/></svg>